<mxfile host="Electron" modified="2025-04-16T06:53:25.238Z" agent="Mozilla/5.0 (Windows NT 10.0; Win64; x64) AppleWebKit/537.36 (KHTML, like Gecko) draw.io/22.1.18 Chrome/120.0.6099.199 Electron/28.1.2 Safari/537.36" etag="wKkntNgKZArBoEJmqQu3" version="22.1.18" type="device">
  <diagram name="第 1 页" id="1KdzrKysrm_pPRe3ry2b">
    <mxGraphModel dx="1461" dy="717" grid="1" gridSize="10" guides="1" tooltips="1" connect="1" arrows="1" fold="1" page="1" pageScale="1" pageWidth="20000" pageHeight="20000" math="0" shadow="0">
      <root>
        <mxCell id="0" />
        <mxCell id="1" parent="0" />
        <mxCell id="7Vn9YL6_saJ21-usapcR-2" value="&lt;font face=&quot;Georgia&quot; style=&quot;font-size: 24px;&quot;&gt;LoginDialog&lt;/font&gt;" style="rounded=0;whiteSpace=wrap;html=1;sketch=1;hachureGap=4;jiggle=2;curveFitting=1;fontFamily=Architects Daughter;fontSource=https%3A%2F%2Ffonts.googleapis.com%2Fcss%3Ffamily%3DArchitects%2BDaughter;fontSize=20;" parent="1" vertex="1">
          <mxGeometry x="790" y="500" width="290" height="160" as="geometry" />
        </mxCell>
        <mxCell id="7Vn9YL6_saJ21-usapcR-3" value="" style="endArrow=classic;html=1;rounded=0;sketch=1;hachureGap=4;jiggle=2;curveFitting=1;fontFamily=Architects Daughter;fontSource=https%3A%2F%2Ffonts.googleapis.com%2Fcss%3Ffamily%3DArchitects%2BDaughter;fontSize=16;exitX=0.167;exitY=1.046;exitDx=0;exitDy=0;exitPerimeter=0;entryX=0.577;entryY=-0.027;entryDx=0;entryDy=0;entryPerimeter=0;" parent="1" source="7Vn9YL6_saJ21-usapcR-2" target="7Vn9YL6_saJ21-usapcR-12" edge="1">
          <mxGeometry width="50" height="50" relative="1" as="geometry">
            <mxPoint x="1080" y="800" as="sourcePoint" />
            <mxPoint x="760" y="860" as="targetPoint" />
          </mxGeometry>
        </mxCell>
        <mxCell id="7Vn9YL6_saJ21-usapcR-8" value="&lt;font style=&quot;font-size: 18px;&quot; face=&quot;Georgia&quot;&gt;switchRegister&lt;/font&gt;" style="edgeLabel;html=1;align=center;verticalAlign=middle;resizable=0;points=[];fontSize=20;fontFamily=Architects Daughter;" parent="7Vn9YL6_saJ21-usapcR-3" vertex="1" connectable="0">
          <mxGeometry x="-0.0655" relative="1" as="geometry">
            <mxPoint as="offset" />
          </mxGeometry>
        </mxCell>
        <mxCell id="7Vn9YL6_saJ21-usapcR-4" value="" style="endArrow=classic;html=1;rounded=0;sketch=1;hachureGap=4;jiggle=2;curveFitting=1;fontFamily=Architects Daughter;fontSource=https%3A%2F%2Ffonts.googleapis.com%2Fcss%3Ffamily%3DArchitects%2BDaughter;fontSize=16;exitX=0.489;exitY=1.058;exitDx=0;exitDy=0;exitPerimeter=0;entryX=0.517;entryY=-0.067;entryDx=0;entryDy=0;entryPerimeter=0;" parent="1" source="7Vn9YL6_saJ21-usapcR-2" target="7Vn9YL6_saJ21-usapcR-13" edge="1">
          <mxGeometry width="50" height="50" relative="1" as="geometry">
            <mxPoint x="1080" y="800" as="sourcePoint" />
            <mxPoint x="935" y="850" as="targetPoint" />
          </mxGeometry>
        </mxCell>
        <mxCell id="7Vn9YL6_saJ21-usapcR-9" value="&lt;font face=&quot;Georgia&quot; style=&quot;font-size: 18px;&quot;&gt;switchReset&lt;/font&gt;" style="edgeLabel;html=1;align=center;verticalAlign=middle;resizable=0;points=[];fontSize=20;fontFamily=Architects Daughter;" parent="7Vn9YL6_saJ21-usapcR-4" vertex="1" connectable="0">
          <mxGeometry x="-0.0255" y="1" relative="1" as="geometry">
            <mxPoint as="offset" />
          </mxGeometry>
        </mxCell>
        <mxCell id="7Vn9YL6_saJ21-usapcR-10" value="" style="endArrow=classic;html=1;rounded=0;sketch=1;hachureGap=4;jiggle=2;curveFitting=1;fontFamily=Architects Daughter;fontSource=https%3A%2F%2Ffonts.googleapis.com%2Fcss%3Ffamily%3DArchitects%2BDaughter;fontSize=16;exitX=0.741;exitY=1.046;exitDx=0;exitDy=0;exitPerimeter=0;entryX=0.435;entryY=-0.053;entryDx=0;entryDy=0;entryPerimeter=0;" parent="1" source="7Vn9YL6_saJ21-usapcR-2" target="7Vn9YL6_saJ21-usapcR-14" edge="1">
          <mxGeometry width="50" height="50" relative="1" as="geometry">
            <mxPoint x="1080" y="800" as="sourcePoint" />
            <mxPoint x="1170" y="850" as="targetPoint" />
          </mxGeometry>
        </mxCell>
        <mxCell id="7Vn9YL6_saJ21-usapcR-11" value="&lt;font face=&quot;Georgia&quot; style=&quot;font-size: 18px;&quot;&gt;TcpMgr::sig_switch_chatdlg&lt;/font&gt;" style="edgeLabel;html=1;align=center;verticalAlign=middle;resizable=0;points=[];fontSize=20;fontFamily=Architects Daughter;" parent="7Vn9YL6_saJ21-usapcR-10" vertex="1" connectable="0">
          <mxGeometry x="-0.0638" relative="1" as="geometry">
            <mxPoint x="46" as="offset" />
          </mxGeometry>
        </mxCell>
        <mxCell id="7Vn9YL6_saJ21-usapcR-12" value="&lt;font face=&quot;Georgia&quot;&gt;RegisterDialog&lt;br&gt;(注册界面)&lt;br&gt;&lt;/font&gt;" style="rounded=0;whiteSpace=wrap;html=1;sketch=1;hachureGap=4;jiggle=2;curveFitting=1;fontFamily=Architects Daughter;fontSource=https%3A%2F%2Ffonts.googleapis.com%2Fcss%3Ffamily%3DArchitects%2BDaughter;fontSize=20;" parent="1" vertex="1">
          <mxGeometry x="650" y="880" width="160" height="100" as="geometry" />
        </mxCell>
        <mxCell id="7Vn9YL6_saJ21-usapcR-13" value="&lt;font face=&quot;Georgia&quot;&gt;RegisterDialog&lt;br&gt;(忘记密码界面)&lt;br&gt;&lt;/font&gt;" style="rounded=0;whiteSpace=wrap;html=1;sketch=1;hachureGap=4;jiggle=2;curveFitting=1;fontFamily=Architects Daughter;fontSource=https%3A%2F%2Ffonts.googleapis.com%2Fcss%3Ffamily%3DArchitects%2BDaughter;fontSize=20;" parent="1" vertex="1">
          <mxGeometry x="855" y="880" width="160" height="100" as="geometry" />
        </mxCell>
        <mxCell id="7Vn9YL6_saJ21-usapcR-14" value="&lt;font face=&quot;Georgia&quot;&gt;RegisterDialog&lt;br&gt;(聊天界面界面)&lt;br&gt;&lt;/font&gt;" style="rounded=0;whiteSpace=wrap;html=1;sketch=1;hachureGap=4;jiggle=2;curveFitting=1;fontFamily=Architects Daughter;fontSource=https%3A%2F%2Ffonts.googleapis.com%2Fcss%3Ffamily%3DArchitects%2BDaughter;fontSize=20;" parent="1" vertex="1">
          <mxGeometry x="1120" y="870" width="160" height="100" as="geometry" />
        </mxCell>
        <mxCell id="7Vn9YL6_saJ21-usapcR-17" value="" style="endArrow=classic;html=1;rounded=0;sketch=1;hachureGap=4;jiggle=2;curveFitting=1;fontFamily=Architects Daughter;fontSource=https%3A%2F%2Ffonts.googleapis.com%2Fcss%3Ffamily%3DArchitects%2BDaughter;fontSize=16;exitX=0.44;exitY=1.08;exitDx=0;exitDy=0;exitPerimeter=0;entryX=0.454;entryY=0.044;entryDx=0;entryDy=0;entryPerimeter=0;" parent="1" source="7Vn9YL6_saJ21-usapcR-12" target="7Vn9YL6_saJ21-usapcR-22" edge="1">
          <mxGeometry width="50" height="50" relative="1" as="geometry">
            <mxPoint x="1080" y="1000" as="sourcePoint" />
            <mxPoint x="720" y="1100" as="targetPoint" />
          </mxGeometry>
        </mxCell>
        <mxCell id="7Vn9YL6_saJ21-usapcR-19" value="&lt;font face=&quot;Georgia&quot;&gt;sigSwitchLogin&lt;/font&gt;" style="edgeLabel;html=1;align=center;verticalAlign=middle;resizable=0;points=[];fontSize=20;fontFamily=Architects Daughter;" parent="7Vn9YL6_saJ21-usapcR-17" vertex="1" connectable="0">
          <mxGeometry x="0.1375" y="-3" relative="1" as="geometry">
            <mxPoint as="offset" />
          </mxGeometry>
        </mxCell>
        <mxCell id="7Vn9YL6_saJ21-usapcR-22" value="&lt;font face=&quot;Georgia&quot; style=&quot;font-size: 24px;&quot;&gt;LoginDialog&lt;/font&gt;" style="rounded=0;whiteSpace=wrap;html=1;sketch=1;hachureGap=4;jiggle=2;curveFitting=1;fontFamily=Architects Daughter;fontSource=https%3A%2F%2Ffonts.googleapis.com%2Fcss%3Ffamily%3DArchitects%2BDaughter;fontSize=20;" parent="1" vertex="1">
          <mxGeometry x="640" y="1150" width="180" height="90" as="geometry" />
        </mxCell>
        <mxCell id="7Vn9YL6_saJ21-usapcR-24" value="" style="endArrow=classic;html=1;rounded=0;sketch=1;hachureGap=4;jiggle=2;curveFitting=1;fontFamily=Architects Daughter;fontSource=https%3A%2F%2Ffonts.googleapis.com%2Fcss%3Ffamily%3DArchitects%2BDaughter;fontSize=16;exitX=0.488;exitY=1.087;exitDx=0;exitDy=0;exitPerimeter=0;entryX=0.75;entryY=0;entryDx=0;entryDy=0;" parent="1" source="7Vn9YL6_saJ21-usapcR-13" target="7Vn9YL6_saJ21-usapcR-22" edge="1">
          <mxGeometry width="50" height="50" relative="1" as="geometry">
            <mxPoint x="1080" y="1020" as="sourcePoint" />
            <mxPoint x="1130" y="970" as="targetPoint" />
          </mxGeometry>
        </mxCell>
        <mxCell id="7Vn9YL6_saJ21-usapcR-25" value="&lt;font face=&quot;Georgia&quot;&gt;switchLogin&lt;/font&gt;" style="edgeLabel;html=1;align=center;verticalAlign=middle;resizable=0;points=[];fontSize=20;fontFamily=Architects Daughter;" parent="7Vn9YL6_saJ21-usapcR-24" vertex="1" connectable="0">
          <mxGeometry x="-0.2649" relative="1" as="geometry">
            <mxPoint x="-20" y="22" as="offset" />
          </mxGeometry>
        </mxCell>
      </root>
    </mxGraphModel>
  </diagram>
</mxfile>
